<svg id="svg" version="1.1" xmlns="http://www.w3.org/2000/svg" xmlns:xlink="http://www.w3.org/1999/xlink" width="400" height="400" viewBox="0, 0, 400,400"><g id="svgg"><path id="path0" d="M225.000 37.500 L 225.000 50.000 237.500 50.000 L 250.000 50.000 250.000 37.500 L 250.000 25.000 237.500 25.000 L 225.000 25.000 225.000 37.500 M75.000 87.500 L 75.000 100.000 87.500 100.000 L 100.000 100.000 100.000 87.500 L 100.000 75.000 87.500 75.000 L 75.000 75.000 75.000 87.500 M150.000 87.500 L 150.000 100.000 137.500 100.000 L 125.000 100.000 125.000 112.500 L 125.000 125.000 112.500 125.000 L 100.000 125.000 100.000 162.500 L 100.000 200.000 112.500 200.000 L 125.000 200.000 125.000 212.500 L 125.000 225.000 137.500 225.000 L 150.000 225.000 150.000 237.500 L 150.000 250.000 162.500 250.000 L 175.000 250.000 175.000 275.000 L 175.000 300.000 162.500 300.000 L 150.000 300.000 150.000 287.500 L 150.000 275.000 137.500 275.000 L 125.000 275.000 125.000 262.500 L 125.000 250.000 100.000 250.000 L 75.000 250.000 75.000 237.500 L 75.000 225.000 62.500 225.000 L 50.000 225.000 50.000 212.500 L 50.000 200.000 37.500 200.000 L 25.000 200.000 25.000 212.500 L 25.000 225.000 37.500 225.000 L 50.000 225.000 50.000 250.000 L 50.000 275.000 62.500 275.000 L 75.000 275.000 75.000 287.500 L 75.000 300.000 87.500 300.000 L 100.000 300.000 100.000 312.500 L 100.000 325.000 125.000 325.000 L 150.000 325.000 150.000 337.500 L 150.000 350.000 162.500 350.000 L 175.000 350.000 175.000 325.000 L 175.000 300.000 187.500 300.000 L 200.000 300.000 200.000 325.000 L 200.000 350.000 212.500 350.000 L 225.000 350.000 225.000 337.500 L 225.000 325.000 237.500 325.000 L 250.000 325.000 250.000 312.500 L 250.000 300.000 262.500 300.000 L 275.000 300.000 275.000 287.500 L 275.000 275.000 300.000 275.000 L 325.000 275.000 325.000 262.500 L 325.000 250.000 337.500 250.000 L 350.000 250.000 350.000 237.500 L 350.000 225.000 362.500 225.000 L 375.000 225.000 375.000 200.000 L 375.000 175.000 362.500 175.000 L 350.000 175.000 350.000 187.500 L 350.000 200.000 325.000 200.000 L 300.000 200.000 300.000 212.500 L 300.000 225.000 287.500 225.000 L 275.000 225.000 275.000 250.000 L 275.000 275.000 262.500 275.000 L 250.000 275.000 250.000 287.500 L 250.000 300.000 225.000 300.000 L 200.000 300.000 200.000 275.000 L 200.000 250.000 212.500 250.000 L 225.000 250.000 225.000 237.500 L 225.000 225.000 237.500 225.000 L 250.000 225.000 250.000 212.500 L 250.000 200.000 262.500 200.000 L 275.000 200.000 275.000 162.500 L 275.000 125.000 262.500 125.000 L 250.000 125.000 250.000 112.500 L 250.000 100.000 237.500 100.000 L 225.000 100.000 225.000 87.500 L 225.000 75.000 212.500 75.000 L 200.000 75.000 200.000 87.500 L 200.000 100.000 212.500 100.000 L 225.000 100.000 225.000 112.500 L 225.000 125.000 237.500 125.000 L 250.000 125.000 250.000 162.500 L 250.000 200.000 237.500 200.000 L 225.000 200.000 225.000 212.500 L 225.000 225.000 212.500 225.000 L 200.000 225.000 200.000 237.500 L 200.000 250.000 187.500 250.000 L 175.000 250.000 175.000 237.500 L 175.000 225.000 162.500 225.000 L 150.000 225.000 150.000 212.500 L 150.000 200.000 137.500 200.000 L 125.000 200.000 125.000 162.500 L 125.000 125.000 137.500 125.000 L 150.000 125.000 150.000 112.500 L 150.000 100.000 162.500 100.000 L 175.000 100.000 175.000 87.500 L 175.000 75.000 162.500 75.000 L 150.000 75.000 150.000 87.500 M325.000 87.500 L 325.000 100.000 337.500 100.000 L 350.000 100.000 350.000 87.500 L 350.000 75.000 337.500 75.000 L 325.000 75.000 325.000 87.500 " stroke="none" fill="#74243c" fill-rule="evenodd"></path><path id="path1" d="M250.000 37.500 L 250.000 50.000 262.500 50.000 L 275.000 50.000 275.000 37.500 L 275.000 25.000 262.500 25.000 L 250.000 25.000 250.000 37.500 M100.000 62.500 L 100.000 75.000 112.500 75.000 L 125.000 75.000 125.000 62.500 L 125.000 50.000 112.500 50.000 L 100.000 50.000 100.000 62.500 M300.000 62.500 L 300.000 75.000 312.500 75.000 L 325.000 75.000 325.000 62.500 L 325.000 50.000 312.500 50.000 L 300.000 50.000 300.000 62.500 M225.000 87.500 L 225.000 100.000 237.500 100.000 L 250.000 100.000 250.000 112.500 L 250.000 125.000 262.500 125.000 L 275.000 125.000 275.000 162.500 L 275.000 200.000 262.500 200.000 L 250.000 200.000 250.000 212.500 L 250.000 225.000 237.500 225.000 L 225.000 225.000 225.000 237.500 L 225.000 250.000 212.500 250.000 L 200.000 250.000 200.000 262.500 L 200.000 275.000 212.500 275.000 L 225.000 275.000 225.000 287.500 L 225.000 300.000 237.500 300.000 L 250.000 300.000 250.000 287.500 L 250.000 275.000 262.500 275.000 L 275.000 275.000 275.000 262.500 L 275.000 250.000 262.500 250.000 L 250.000 250.000 250.000 237.500 L 250.000 225.000 262.500 225.000 L 275.000 225.000 275.000 212.500 L 275.000 200.000 287.500 200.000 L 300.000 200.000 300.000 187.500 L 300.000 175.000 312.500 175.000 L 325.000 175.000 325.000 150.000 L 325.000 125.000 312.500 125.000 L 300.000 125.000 300.000 112.500 L 300.000 100.000 275.000 100.000 L 250.000 100.000 250.000 87.500 L 250.000 75.000 237.500 75.000 L 225.000 75.000 225.000 87.500 M50.000 112.500 L 50.000 125.000 62.500 125.000 L 75.000 125.000 75.000 112.500 L 75.000 100.000 62.500 100.000 L 50.000 100.000 50.000 112.500 M100.000 112.500 L 100.000 125.000 112.500 125.000 L 125.000 125.000 125.000 112.500 L 125.000 100.000 112.500 100.000 L 100.000 100.000 100.000 112.500 M75.000 175.000 L 75.000 200.000 62.500 200.000 L 50.000 200.000 50.000 187.500 L 50.000 175.000 37.500 175.000 L 25.000 175.000 25.000 187.500 L 25.000 200.000 37.500 200.000 L 50.000 200.000 50.000 212.500 L 50.000 225.000 62.500 225.000 L 75.000 225.000 75.000 237.500 L 75.000 250.000 87.500 250.000 L 100.000 250.000 100.000 237.500 L 100.000 225.000 112.500 225.000 L 125.000 225.000 125.000 237.500 L 125.000 250.000 137.500 250.000 L 150.000 250.000 150.000 262.500 L 150.000 275.000 162.500 275.000 L 175.000 275.000 175.000 262.500 L 175.000 250.000 162.500 250.000 L 150.000 250.000 150.000 237.500 L 150.000 225.000 137.500 225.000 L 125.000 225.000 125.000 212.500 L 125.000 200.000 112.500 200.000 L 100.000 200.000 100.000 175.000 L 100.000 150.000 87.500 150.000 L 75.000 150.000 75.000 175.000 M100.000 212.500 L 100.000 225.000 87.500 225.000 L 75.000 225.000 75.000 212.500 L 75.000 200.000 87.500 200.000 L 100.000 200.000 100.000 212.500 M250.000 262.500 L 250.000 275.000 237.500 275.000 L 225.000 275.000 225.000 262.500 L 225.000 250.000 237.500 250.000 L 250.000 250.000 250.000 262.500 " stroke="none" fill="#ab3a35" fill-rule="evenodd"></path><path id="path2" d="M125.000 62.500 L 125.000 75.000 137.500 75.000 L 150.000 75.000 150.000 62.500 L 150.000 50.000 137.500 50.000 L 125.000 50.000 125.000 62.500 M250.000 62.500 L 250.000 75.000 275.000 75.000 L 300.000 75.000 300.000 87.500 L 300.000 100.000 312.500 100.000 L 325.000 100.000 325.000 112.500 L 325.000 125.000 337.500 125.000 L 350.000 125.000 350.000 112.500 L 350.000 100.000 337.500 100.000 L 325.000 100.000 325.000 87.500 L 325.000 75.000 312.500 75.000 L 300.000 75.000 300.000 62.500 L 300.000 50.000 275.000 50.000 L 250.000 50.000 250.000 62.500 M50.000 137.500 L 50.000 150.000 62.500 150.000 L 75.000 150.000 75.000 137.500 L 75.000 125.000 62.500 125.000 L 50.000 125.000 50.000 137.500 M25.000 237.500 L 25.000 250.000 37.500 250.000 L 50.000 250.000 50.000 237.500 L 50.000 225.000 37.500 225.000 L 25.000 225.000 25.000 237.500 M350.000 237.500 L 350.000 250.000 337.500 250.000 L 325.000 250.000 325.000 262.500 L 325.000 275.000 300.000 275.000 L 275.000 275.000 275.000 287.500 L 275.000 300.000 262.500 300.000 L 250.000 300.000 250.000 312.500 L 250.000 325.000 237.500 325.000 L 225.000 325.000 225.000 337.500 L 225.000 350.000 237.500 350.000 L 250.000 350.000 250.000 337.500 L 250.000 325.000 275.000 325.000 L 300.000 325.000 300.000 312.500 L 300.000 300.000 325.000 300.000 L 350.000 300.000 350.000 287.500 L 350.000 275.000 362.500 275.000 L 375.000 275.000 375.000 250.000 L 375.000 225.000 362.500 225.000 L 350.000 225.000 350.000 237.500 M50.000 287.500 L 50.000 300.000 62.500 300.000 L 75.000 300.000 75.000 312.500 L 75.000 325.000 87.500 325.000 L 100.000 325.000 100.000 337.500 L 100.000 350.000 125.000 350.000 L 150.000 350.000 150.000 337.500 L 150.000 325.000 125.000 325.000 L 100.000 325.000 100.000 312.500 L 100.000 300.000 87.500 300.000 L 75.000 300.000 75.000 287.500 L 75.000 275.000 62.500 275.000 L 50.000 275.000 50.000 287.500 " stroke="none" fill="#441c34" fill-rule="evenodd"></path><path id="path3" d="M175.000 87.500 L 175.000 100.000 162.500 100.000 L 150.000 100.000 150.000 112.500 L 150.000 125.000 137.500 125.000 L 125.000 125.000 125.000 162.500 L 125.000 200.000 137.500 200.000 L 150.000 200.000 150.000 212.500 L 150.000 225.000 162.500 225.000 L 175.000 225.000 175.000 237.500 L 175.000 250.000 187.500 250.000 L 200.000 250.000 200.000 237.500 L 200.000 225.000 212.500 225.000 L 225.000 225.000 225.000 212.500 L 225.000 200.000 237.500 200.000 L 250.000 200.000 250.000 162.500 L 250.000 125.000 237.500 125.000 L 225.000 125.000 225.000 112.500 L 225.000 100.000 212.500 100.000 L 200.000 100.000 200.000 87.500 L 200.000 75.000 187.500 75.000 L 175.000 75.000 175.000 87.500 M200.000 137.500 L 200.000 150.000 212.500 150.000 L 225.000 150.000 225.000 175.000 L 225.000 200.000 212.500 200.000 L 200.000 200.000 200.000 212.500 L 200.000 225.000 187.500 225.000 L 175.000 225.000 175.000 212.500 L 175.000 200.000 162.500 200.000 L 150.000 200.000 150.000 175.000 L 150.000 150.000 162.500 150.000 L 175.000 150.000 175.000 137.500 L 175.000 125.000 187.500 125.000 L 200.000 125.000 200.000 137.500 " stroke="none" fill="#dc843c" fill-rule="evenodd"></path><path id="path4" d="M225.000 12.500 L 225.000 25.000 212.500 25.000 L 200.000 25.000 200.000 37.500 L 200.000 50.000 175.000 50.000 L 150.000 50.000 150.000 37.500 L 150.000 25.000 125.000 25.000 L 100.000 25.000 100.000 37.500 L 100.000 50.000 87.500 50.000 L 75.000 50.000 75.000 62.500 L 75.000 75.000 62.500 75.000 L 50.000 75.000 50.000 87.500 L 50.000 100.000 37.500 100.000 L 25.000 100.000 25.000 137.500 L 25.000 175.000 12.500 175.000 L 0.000 175.000 0.000 212.500 L 0.000 250.000 12.500 250.000 L 25.000 250.000 25.000 275.000 L 25.000 300.000 37.500 300.000 L 50.000 300.000 50.000 312.500 L 50.000 325.000 62.500 325.000 L 75.000 325.000 75.000 337.500 L 75.000 350.000 87.500 350.000 L 100.000 350.000 100.000 362.500 L 100.000 375.000 175.000 375.000 L 250.000 375.000 250.000 362.500 L 250.000 350.000 275.000 350.000 L 300.000 350.000 300.000 337.500 L 300.000 325.000 325.000 325.000 L 350.000 325.000 350.000 312.500 L 350.000 300.000 362.500 300.000 L 375.000 300.000 375.000 287.500 L 375.000 275.000 387.500 275.000 L 400.000 275.000 400.000 225.000 L 400.000 175.000 387.500 175.000 L 375.000 175.000 375.000 162.500 L 375.000 150.000 362.500 150.000 L 350.000 150.000 350.000 137.500 L 350.000 125.000 362.500 125.000 L 375.000 125.000 375.000 100.000 L 375.000 75.000 362.500 75.000 L 350.000 75.000 350.000 62.500 L 350.000 50.000 337.500 50.000 L 325.000 50.000 325.000 37.500 L 325.000 25.000 300.000 25.000 L 275.000 25.000 275.000 12.500 L 275.000 0.000 250.000 0.000 L 225.000 0.000 225.000 12.500 M275.000 37.500 L 275.000 50.000 300.000 50.000 L 325.000 50.000 325.000 62.500 L 325.000 75.000 337.500 75.000 L 350.000 75.000 350.000 100.000 L 350.000 125.000 337.500 125.000 L 325.000 125.000 325.000 150.000 L 325.000 175.000 312.500 175.000 L 300.000 175.000 300.000 187.500 L 300.000 200.000 325.000 200.000 L 350.000 200.000 350.000 187.500 L 350.000 175.000 362.500 175.000 L 375.000 175.000 375.000 225.000 L 375.000 275.000 362.500 275.000 L 350.000 275.000 350.000 287.500 L 350.000 300.000 325.000 300.000 L 300.000 300.000 300.000 312.500 L 300.000 325.000 275.000 325.000 L 250.000 325.000 250.000 337.500 L 250.000 350.000 225.000 350.000 L 200.000 350.000 200.000 325.000 L 200.000 300.000 187.500 300.000 L 175.000 300.000 175.000 325.000 L 175.000 350.000 137.500 350.000 L 100.000 350.000 100.000 337.500 L 100.000 325.000 87.500 325.000 L 75.000 325.000 75.000 312.500 L 75.000 300.000 62.500 300.000 L 50.000 300.000 50.000 275.000 L 50.000 250.000 37.500 250.000 L 25.000 250.000 25.000 212.500 L 25.000 175.000 37.500 175.000 L 50.000 175.000 50.000 187.500 L 50.000 200.000 62.500 200.000 L 75.000 200.000 75.000 175.000 L 75.000 150.000 62.500 150.000 L 50.000 150.000 50.000 125.000 L 50.000 100.000 62.500 100.000 L 75.000 100.000 75.000 87.500 L 75.000 75.000 87.500 75.000 L 100.000 75.000 100.000 62.500 L 100.000 50.000 125.000 50.000 L 150.000 50.000 150.000 62.500 L 150.000 75.000 200.000 75.000 L 250.000 75.000 250.000 62.500 L 250.000 50.000 237.500 50.000 L 225.000 50.000 225.000 37.500 L 225.000 25.000 250.000 25.000 L 275.000 25.000 275.000 37.500 M100.000 87.500 L 100.000 100.000 87.500 100.000 L 75.000 100.000 75.000 125.000 L 75.000 150.000 87.500 150.000 L 100.000 150.000 100.000 125.000 L 100.000 100.000 125.000 100.000 L 150.000 100.000 150.000 87.500 L 150.000 75.000 125.000 75.000 L 100.000 75.000 100.000 87.500 M250.000 87.500 L 250.000 100.000 275.000 100.000 L 300.000 100.000 300.000 112.500 L 300.000 125.000 312.500 125.000 L 325.000 125.000 325.000 112.500 L 325.000 100.000 312.500 100.000 L 300.000 100.000 300.000 87.500 L 300.000 75.000 275.000 75.000 L 250.000 75.000 250.000 87.500 M75.000 212.500 L 75.000 225.000 87.500 225.000 L 100.000 225.000 100.000 237.500 L 100.000 250.000 112.500 250.000 L 125.000 250.000 125.000 262.500 L 125.000 275.000 137.500 275.000 L 150.000 275.000 150.000 287.500 L 150.000 300.000 162.500 300.000 L 175.000 300.000 175.000 287.500 L 175.000 275.000 162.500 275.000 L 150.000 275.000 150.000 262.500 L 150.000 250.000 137.500 250.000 L 125.000 250.000 125.000 237.500 L 125.000 225.000 112.500 225.000 L 100.000 225.000 100.000 212.500 L 100.000 200.000 87.500 200.000 L 75.000 200.000 75.000 212.500 M275.000 212.500 L 275.000 225.000 262.500 225.000 L 250.000 225.000 250.000 237.500 L 250.000 250.000 237.500 250.000 L 225.000 250.000 225.000 262.500 L 225.000 275.000 212.500 275.000 L 200.000 275.000 200.000 287.500 L 200.000 300.000 212.500 300.000 L 225.000 300.000 225.000 287.500 L 225.000 275.000 237.500 275.000 L 250.000 275.000 250.000 262.500 L 250.000 250.000 262.500 250.000 L 275.000 250.000 275.000 237.500 L 275.000 225.000 287.500 225.000 L 300.000 225.000 300.000 212.500 L 300.000 200.000 287.500 200.000 L 275.000 200.000 275.000 212.500 " stroke="none" fill="#241424" fill-rule="evenodd"></path><path id="path5" d="M175.000 137.500 L 175.000 150.000 162.500 150.000 L 150.000 150.000 150.000 175.000 L 150.000 200.000 162.500 200.000 L 175.000 200.000 175.000 212.500 L 175.000 225.000 187.500 225.000 L 200.000 225.000 200.000 212.500 L 200.000 200.000 212.500 200.000 L 225.000 200.000 225.000 175.000 L 225.000 150.000 212.500 150.000 L 200.000 150.000 200.000 137.500 L 200.000 125.000 187.500 125.000 L 175.000 125.000 175.000 137.500 " stroke="none" fill="#0c0c14" fill-rule="evenodd"></path><path id="path6" d="" stroke="none" fill="#401028" fill-rule="evenodd"></path><path id="path7" d="" stroke="none" fill="#241034" fill-rule="evenodd"></path><path id="path8" d="" stroke="none" fill="#241028" fill-rule="evenodd"></path></g></svg>