<svg id="svg" version="1.1" xmlns="http://www.w3.org/2000/svg" xmlns:xlink="http://www.w3.org/1999/xlink" width="400" height="400" viewBox="0, 0, 400,400"><g id="svgg"><path id="path0" d="M125.000 50.000 L 125.000 75.000 112.500 75.000 L 100.000 75.000 100.000 100.000 L 100.000 125.000 112.500 125.000 L 125.000 125.000 125.000 137.500 L 125.000 150.000 187.500 150.000 L 250.000 150.000 250.000 137.500 L 250.000 125.000 262.500 125.000 L 275.000 125.000 275.000 87.500 L 275.000 50.000 262.500 50.000 L 250.000 50.000 250.000 37.500 L 250.000 25.000 187.500 25.000 L 125.000 25.000 125.000 50.000 M150.000 100.000 L 150.000 125.000 137.500 125.000 L 125.000 125.000 125.000 100.000 L 125.000 75.000 137.500 75.000 L 150.000 75.000 150.000 100.000 M250.000 100.000 L 250.000 125.000 237.500 125.000 L 225.000 125.000 225.000 100.000 L 225.000 75.000 237.500 75.000 L 250.000 75.000 250.000 100.000 M175.000 212.500 L 175.000 225.000 112.500 225.000 L 50.000 225.000 50.000 237.500 L 50.000 250.000 37.500 250.000 L 25.000 250.000 25.000 287.500 L 25.000 325.000 37.500 325.000 L 50.000 325.000 50.000 337.500 L 50.000 350.000 162.500 350.000 L 275.000 350.000 275.000 325.000 L 275.000 300.000 287.500 300.000 L 300.000 300.000 300.000 287.500 L 300.000 275.000 312.500 275.000 L 325.000 275.000 325.000 287.500 L 325.000 300.000 337.500 300.000 L 350.000 300.000 350.000 312.500 L 350.000 325.000 362.500 325.000 L 375.000 325.000 375.000 300.000 L 375.000 275.000 362.500 275.000 L 350.000 275.000 350.000 262.500 L 350.000 250.000 337.500 250.000 L 325.000 250.000 325.000 237.500 L 325.000 225.000 312.500 225.000 L 300.000 225.000 300.000 237.500 L 300.000 250.000 287.500 250.000 L 275.000 250.000 275.000 262.500 L 275.000 275.000 262.500 275.000 L 250.000 275.000 250.000 287.500 L 250.000 300.000 175.000 300.000 L 100.000 300.000 100.000 287.500 L 100.000 275.000 87.500 275.000 L 75.000 275.000 75.000 262.500 L 75.000 250.000 150.000 250.000 L 225.000 250.000 225.000 225.000 L 225.000 200.000 200.000 200.000 L 175.000 200.000 175.000 212.500 " stroke="none" fill="#64ac3c" fill-rule="evenodd"></path><path id="path1" d="M275.000 125.000 L 275.000 150.000 200.000 150.000 L 125.000 150.000 125.000 162.500 L 125.000 175.000 200.000 175.000 L 275.000 175.000 275.000 162.500 L 275.000 150.000 287.500 150.000 L 300.000 150.000 300.000 125.000 L 300.000 100.000 287.500 100.000 L 275.000 100.000 275.000 125.000 M225.000 225.000 L 225.000 250.000 162.500 250.000 L 100.000 250.000 100.000 262.500 L 100.000 275.000 175.000 275.000 L 250.000 275.000 250.000 237.500 L 250.000 200.000 237.500 200.000 L 225.000 200.000 225.000 225.000 M300.000 287.500 L 300.000 300.000 287.500 300.000 L 275.000 300.000 275.000 325.000 L 275.000 350.000 162.500 350.000 L 50.000 350.000 50.000 337.500 L 50.000 325.000 37.500 325.000 L 25.000 325.000 25.000 337.500 L 25.000 350.000 37.500 350.000 L 50.000 350.000 50.000 362.500 L 50.000 375.000 162.500 375.000 L 275.000 375.000 275.000 362.500 L 275.000 350.000 287.500 350.000 L 300.000 350.000 300.000 325.000 L 300.000 300.000 312.500 300.000 L 325.000 300.000 325.000 337.500 L 325.000 375.000 337.500 375.000 L 350.000 375.000 350.000 362.500 L 350.000 350.000 362.500 350.000 L 375.000 350.000 375.000 337.500 L 375.000 325.000 362.500 325.000 L 350.000 325.000 350.000 312.500 L 350.000 300.000 337.500 300.000 L 325.000 300.000 325.000 287.500 L 325.000 275.000 312.500 275.000 L 300.000 275.000 300.000 287.500 " stroke="none" fill="#3c7c4c" fill-rule="evenodd"></path><path id="path2" d="M100.000 137.500 L 100.000 150.000 112.500 150.000 L 125.000 150.000 125.000 137.500 L 125.000 125.000 112.500 125.000 L 100.000 125.000 100.000 137.500 M250.000 137.500 L 250.000 150.000 262.500 150.000 L 275.000 150.000 275.000 137.500 L 275.000 125.000 262.500 125.000 L 250.000 125.000 250.000 137.500 " stroke="none" fill="#fcc4a4" fill-rule="evenodd"></path><path id="path3" d="M125.000 12.500 L 125.000 25.000 112.500 25.000 L 100.000 25.000 100.000 50.000 L 100.000 75.000 87.500 75.000 L 75.000 75.000 75.000 112.500 L 75.000 150.000 87.500 150.000 L 100.000 150.000 100.000 162.500 L 100.000 175.000 112.500 175.000 L 125.000 175.000 125.000 187.500 L 125.000 200.000 87.500 200.000 L 50.000 200.000 50.000 212.500 L 50.000 225.000 37.500 225.000 L 25.000 225.000 25.000 237.500 L 25.000 250.000 12.500 250.000 L 0.000 250.000 0.000 300.000 L 0.000 350.000 12.500 350.000 L 25.000 350.000 25.000 362.500 L 25.000 375.000 37.500 375.000 L 50.000 375.000 50.000 387.500 L 50.000 400.000 162.500 400.000 L 275.000 400.000 275.000 387.500 L 275.000 375.000 300.000 375.000 L 325.000 375.000 325.000 387.500 L 325.000 400.000 350.000 400.000 L 375.000 400.000 375.000 375.000 L 375.000 350.000 387.500 350.000 L 400.000 350.000 400.000 312.500 L 400.000 275.000 387.500 275.000 L 375.000 275.000 375.000 262.500 L 375.000 250.000 362.500 250.000 L 350.000 250.000 350.000 237.500 L 350.000 225.000 337.500 225.000 L 325.000 225.000 325.000 212.500 L 325.000 200.000 312.500 200.000 L 300.000 200.000 300.000 175.000 L 300.000 150.000 312.500 150.000 L 325.000 150.000 325.000 125.000 L 325.000 100.000 312.500 100.000 L 300.000 100.000 300.000 75.000 L 300.000 50.000 287.500 50.000 L 275.000 50.000 275.000 37.500 L 275.000 25.000 262.500 25.000 L 250.000 25.000 250.000 12.500 L 250.000 0.000 187.500 0.000 L 125.000 0.000 125.000 12.500 M250.000 37.500 L 250.000 50.000 262.500 50.000 L 275.000 50.000 275.000 75.000 L 275.000 100.000 287.500 100.000 L 300.000 100.000 300.000 125.000 L 300.000 150.000 287.500 150.000 L 275.000 150.000 275.000 162.500 L 275.000 175.000 200.000 175.000 L 125.000 175.000 125.000 162.500 L 125.000 150.000 112.500 150.000 L 100.000 150.000 100.000 112.500 L 100.000 75.000 112.500 75.000 L 125.000 75.000 125.000 50.000 L 125.000 25.000 187.500 25.000 L 250.000 25.000 250.000 37.500 M125.000 100.000 L 125.000 125.000 137.500 125.000 L 150.000 125.000 150.000 100.000 L 150.000 75.000 137.500 75.000 L 125.000 75.000 125.000 100.000 M225.000 100.000 L 225.000 125.000 237.500 125.000 L 250.000 125.000 250.000 100.000 L 250.000 75.000 237.500 75.000 L 225.000 75.000 225.000 100.000 M250.000 237.500 L 250.000 275.000 262.500 275.000 L 275.000 275.000 275.000 262.500 L 275.000 250.000 287.500 250.000 L 300.000 250.000 300.000 237.500 L 300.000 225.000 312.500 225.000 L 325.000 225.000 325.000 237.500 L 325.000 250.000 337.500 250.000 L 350.000 250.000 350.000 262.500 L 350.000 275.000 362.500 275.000 L 375.000 275.000 375.000 312.500 L 375.000 350.000 362.500 350.000 L 350.000 350.000 350.000 362.500 L 350.000 375.000 337.500 375.000 L 325.000 375.000 325.000 337.500 L 325.000 300.000 312.500 300.000 L 300.000 300.000 300.000 325.000 L 300.000 350.000 287.500 350.000 L 275.000 350.000 275.000 362.500 L 275.000 375.000 162.500 375.000 L 50.000 375.000 50.000 362.500 L 50.000 350.000 37.500 350.000 L 25.000 350.000 25.000 300.000 L 25.000 250.000 37.500 250.000 L 50.000 250.000 50.000 237.500 L 50.000 225.000 112.500 225.000 L 175.000 225.000 175.000 212.500 L 175.000 200.000 212.500 200.000 L 250.000 200.000 250.000 237.500 M75.000 262.500 L 75.000 275.000 87.500 275.000 L 100.000 275.000 100.000 287.500 L 100.000 300.000 175.000 300.000 L 250.000 300.000 250.000 287.500 L 250.000 275.000 175.000 275.000 L 100.000 275.000 100.000 262.500 L 100.000 250.000 87.500 250.000 L 75.000 250.000 75.000 262.500 " stroke="none" fill="#2c3444" fill-rule="evenodd"></path><path id="path4" d="" stroke="none" fill="#6c9070" fill-rule="evenodd"></path></g></svg>